<svg viewBox="0 0 32 32" xmlns="http://www.w3.org/2000/svg"><title></title><g data-name="ID Card" id="ID_Card"><path d="M25,4H7A5,5,0,0,0,2,9V23a5,5,0,0,0,5,5H25a5,5,0,0,0,5-5V9A5,5,0,0,0,25,4Zm3,19a3,3,0,0,1-3,3H7a3,3,0,0,1-3-3V9A3,3,0,0,1,7,6H25a3,3,0,0,1,3,3Z" id="id_101" style="fill: rgb(255, 255, 255);"></path><path d="M11,14a3,3,0,1,0-3-3A3,3,0,0,0,11,14Zm0-4a1,1,0,1,1-1,1A1,1,0,0,1,11,10Z" id="id_102" style="fill: rgb(255, 255, 255);"></path><path d="M11,15a5,5,0,0,0-5,5v1a3,3,0,0,0,3,3h4a3,3,0,0,0,3-3V20A5,5,0,0,0,11,15Zm3,6a1,1,0,0,1-1,1H9a1,1,0,0,1-1-1V20a3,3,0,0,1,6,0Z" id="id_103" style="fill: rgb(255, 255, 255);"></path><path d="M25,10H19a1,1,0,0,0,0,2h6a1,1,0,0,0,0-2Z" id="id_104" style="fill: rgb(255, 255, 255);"></path><path d="M25,15H19a1,1,0,0,0,0,2h6a1,1,0,0,0,0-2Z" id="id_105" style="fill: rgb(255, 255, 255);"></path><path d="M25,20H19a1,1,0,0,0,0,2h6a1,1,0,0,0,0-2Z" id="id_106" style="fill: rgb(255, 255, 255);"></path></g></svg>